<svg width="20" height="20" viewBox="0 0 20 20" fill="none" xmlns="http://www.w3.org/2000/svg">
<path d="M17.5 3.66667V13.1295L14.8234 11.5681L14.7066 11.5H14.5714L7.66666 11.5C7.02233 11.5 6.5 10.9776 6.5 10.3333V3.66667C6.5 3.02234 7.02234 2.5 7.66667 2.5H16.3333C16.9777 2.5 17.5 3.02233 17.5 3.66667Z" stroke="#40444D"/>
<path fill-rule="evenodd" clip-rule="evenodd" d="M5 5H3.66667C2.74619 5 2 5.74619 2 6.66667V16.8073V18L3 17.35L5.75 15.5625L12.3333 15.5625C13.2538 15.5625 14 14.8163 14 13.8958V13H13V13.8958C13 14.264 12.7015 14.5625 12.3333 14.5625L5.75 14.5625H5.45356L5.20501 14.7241L3 16.1573V6.66667C3 6.29848 3.29848 6 3.66667 6H5V5Z" fill="#40444D"/>
</svg>
