<svg width="20" height="20" viewBox="0 0 20 20" fill="none" xmlns="http://www.w3.org/2000/svg">
<path d="M10.5686 16.3629C12.2305 17.0941 14.0678 17.5 16 17.5C16.3283 17.5 16.6539 17.4883 16.9764 17.4652C17.2799 17.3692 17.5 17.0853 17.5 16.75V13.5406C17.5 13.2177 17.2934 12.9311 16.9872 12.8291L13.6171 11.7057C13.263 11.5877 12.876 11.748 12.7091 12.0818L10.5686 16.3629ZM10.5686 16.3629C7.47934 15.0037 4.99626 12.5207 3.63711 9.43145M10.5686 16.3629C7.768 15.1516 4.8484 12.232 3.63711 9.43145M3.63711 9.43145C2.90591 7.76952 2.5 5.93216 2.5 4C2.5 3.67167 2.51172 3.34609 2.53477 3.02363C2.63076 2.72006 2.91468 2.5 3.25 2.5L6.45943 2.5C6.78225 2.5 7.06886 2.70657 7.17094 3.01283L8.2943 6.38291C8.41233 6.73699 8.25203 7.12398 7.9182 7.2909L3.63711 9.43145Z" stroke="#40444D"/>
</svg>
