<svg width="20" height="20" viewBox="0 0 20 20" fill="none" xmlns="http://www.w3.org/2000/svg">
<path d="M0 10C0 4.47715 4.47715 0 10 0C15.5228 0 20 4.47715 20 10C20 15.5228 15.5228 20 10 20C4.47715 20 0 15.5228 0 10Z" fill="#E4E6EB"/>
<path fill-rule="evenodd" clip-rule="evenodd" d="M12.1338 7.10001C12.1338 8.25981 11.1779 9.20002 9.99879 9.20002C8.81962 9.20002 7.86373 8.25981 7.86373 7.10001C7.86373 5.94021 8.81962 5 9.99879 5C11.1779 5 12.1338 5.94021 12.1338 7.10001ZM14.0901 12.6628C14.1606 13.0541 13.8519 13.4 13.4543 13.4H6.54719C6.14897 13.4 5.84016 13.0531 5.91174 12.6614C5.97882 12.2943 6.07487 11.8748 6.1966 11.6158C6.86744 10.1883 8.31825 9.20002 9.99988 9.20002C11.6945 9.20002 13.1548 10.2037 13.8186 11.649C13.9343 11.9009 14.0258 12.3058 14.0901 12.6628ZM5.02163 11.7211C5.37843 11.0402 5.88364 10.4343 6.49987 9.93681C6.33494 9.91267 6.16566 9.90012 5.99312 9.90012C4.74299 9.90012 3.66446 10.559 3.16576 11.5106C3.10545 11.6257 3.05362 11.7883 3.01099 11.9564C2.91226 12.3458 3.2263 12.7001 3.62799 12.7001H4.67924C4.77891 12.2928 4.89304 11.9665 5.02163 11.7211ZM15.3226 12.7C15.2284 12.3129 15.1209 12.0013 15.0001 11.7653C14.6424 11.0664 14.129 10.4449 13.4998 9.93668C13.6647 9.91253 13.8339 9.89998 14.0063 9.89998C15.2654 9.89998 16.3502 10.5691 16.8434 11.5326C16.8999 11.643 16.9487 11.7975 16.989 11.9579C17.0867 12.3468 16.7726 12.7 16.3716 12.7H15.3226ZM5.72898 9.90002C6.51509 9.90002 7.15235 9.27322 7.15235 8.50001C7.15235 7.72681 6.51509 7.10001 5.72898 7.10001C4.94287 7.10001 4.30561 7.72681 4.30561 8.50001C4.30561 9.27322 4.94287 9.90002 5.72898 9.90002ZM15.6926 8.50001C15.6926 9.27322 15.0553 9.90002 14.2692 9.90002C13.4831 9.90002 12.8459 9.27322 12.8459 8.50001C12.8459 7.72681 13.4831 7.10001 14.2692 7.10001C15.0553 7.10001 15.6926 7.72681 15.6926 8.50001Z" fill="#40444D"/>
</svg>
