<svg width="130" height="18" viewBox="0 0 130 18" fill="none" xmlns="http://www.w3.org/2000/svg">
<path d="M0 2C0 0.89543 0.89543 0 2 0H47V2C44.4479 2 42.0097 3.05632 40.2642 4.91815L30.9631 14.8394C29.0726 16.8559 26.4318 18 23.6677 18H0V2Z" fill="#FF4D6A"/>
<path d="M47 0H128C129.105 0 130 0.895431 130 2H47V0Z" fill="#FF4D6A"/>
<path d="M16 4L16 14" stroke="white" stroke-width="1.5"/>
<path d="M18.5429 7.37293C18.5429 6.47445 17.4044 5.74609 16 5.74609C14.5955 5.74609 13.457 6.47445 13.457 7.37293C13.457 8.2714 14.7285 8.72862 16 8.99976C17.2062 9.25699 18.5429 9.72812 18.5429 10.6266C18.5429 11.5251 17.4044 12.2534 16 12.2534C14.5955 12.2534 13.457 11.5251 13.457 10.6266" stroke="white" stroke-width="1.5"/>
</svg>
