<svg width="20" height="20" viewBox="0 0 20 20" fill="none" xmlns="http://www.w3.org/2000/svg">
<path fill-rule="evenodd" clip-rule="evenodd" d="M12.1803 2.5637C12.1803 2.13978 12.6747 1.9082 13.0004 2.17959L18.118 6.44422C18.3578 6.64412 18.3578 7.01255 18.118 7.21244L13.0004 11.4771C12.6747 11.7485 12.1803 11.5169 12.1803 11.093L12.1803 2.5637ZM12.1803 5.76191H10.0474V7.89477H12.1803V5.76191ZM10.1803 12.1605H8.04749L8.04749 8.96226C8.04749 8.53834 7.55306 8.30676 7.2274 8.57815L2.10984 12.8428C1.86996 13.0427 1.86996 13.4111 2.10984 13.611L7.2274 17.8756C7.55306 18.147 8.04749 17.9154 8.04749 17.4915L8.04749 14.2933H10.1803V12.1605ZM3.84819 6.82835C5.02614 6.82835 5.98106 5.87343 5.98106 4.69548C5.98106 3.51754 5.02614 2.56262 3.84819 2.56262C2.67025 2.56262 1.71533 3.51754 1.71533 4.69548C1.71533 5.87343 2.67025 6.82835 3.84819 6.82835ZM16.3796 17.4926C15.2016 17.4926 14.2467 16.5377 14.2467 15.3597C14.2467 14.1818 15.2016 13.2269 16.3796 13.2269C17.5575 13.2269 18.5125 14.1818 18.5125 15.3597C18.5125 16.5377 17.5575 17.4926 16.3796 17.4926Z" fill="#40444D"/>
</svg>
