<svg width="30" height="30" viewBox="0 0 30 30" fill="none" xmlns="http://www.w3.org/2000/svg">
<path d="M0 15C0 6.71573 6.71573 0 15 0V0C23.2843 0 30 6.71573 30 15V15C30 23.2843 23.2843 30 15 30V30C6.71573 30 0 23.2843 0 15V15Z" fill="#E4E6EB"/>
<path fill-rule="evenodd" clip-rule="evenodd" d="M15 17C16.6569 17 18 15.6569 18 14C18 12.3431 16.6569 11 15 11C13.3431 11 12 12.3431 12 14C12 15.6569 13.3431 17 15 17ZM15 17H16.0671C17.6869 17 19 18.3131 19 19.9329V20.4385C19 20.6615 18.8786 20.8668 18.6832 20.9742C16.3897 22.2356 13.6103 22.2356 11.3168 20.9742C11.1214 20.8668 11 20.6615 11 20.4385V19.9329C11 18.3131 12.3131 17 13.9329 17H15Z" fill="#40444D"/>
<path fill-rule="evenodd" clip-rule="evenodd" d="M22 14C23.1046 14 24 13.1046 24 12C24 10.8954 23.1046 10 22 10C20.8954 10 20 10.8954 20 12C20 13.1046 20.8954 14 22 14ZM22 14H22.766C23.9998 14 25 15.0002 25 16.234V16.6051C25 16.7276 24.9416 16.8428 24.8428 16.9152C23.1507 18.1561 20.8493 18.1561 19.1572 16.9152C19.0584 16.8428 19 16.7276 19 16.6051V16.234C19 15.0002 20.0002 14 21.234 14H22Z" fill="#40444D"/>
<path fill-rule="evenodd" clip-rule="evenodd" d="M8 14C9.10457 14 10 13.1046 10 12C10 10.8954 9.10457 10 8 10C6.89543 10 6 10.8954 6 12C6 13.1046 6.89543 14 8 14ZM8 14H8.76602C9.99981 14 11 15.0002 11 16.234V16.6051C11 16.7276 10.9416 16.8428 10.8428 16.9152C9.15073 18.1561 6.84927 18.1561 5.15715 16.9152C5.05836 16.8428 5 16.7276 5 16.6051V16.234C5 15.0002 6.00019 14 7.23398 14H8Z" fill="#40444D"/>
</svg>
