<svg width="30" height="30" viewBox="0 0 30 30" fill="none" xmlns="http://www.w3.org/2000/svg">
<path fill-rule="evenodd" clip-rule="evenodd" d="M8.25 27C11.1495 27 13.5 24.6495 13.5 21.75C13.5 18.8505 11.1495 16.5 8.25 16.5C5.35051 16.5 3 18.8505 3 21.75C3 24.6495 5.35051 27 8.25 27Z" fill="white" stroke="black" stroke-width="2.505"/>
<path d="M19.9929 15.301C19.9598 15.3341 19.9149 15.3527 19.8681 15.3527L14.6472 15.3527L14.6472 10.1319C14.6472 10.0851 14.6658 10.0402 14.6989 10.0071L21.4046 3.3014C21.5157 3.19024 21.7058 3.26897 21.7058 3.42618L21.7058 8.11722C21.7058 8.21467 21.7848 8.29368 21.8823 8.29368L26.5738 8.29368C26.731 8.29368 26.8097 8.48375 26.6985 8.59492L19.9929 15.301Z" fill="white"/>
<path d="M14.6472 15.3527L19.8924 15.3527C19.9236 15.3527 19.9536 15.3403 19.9756 15.3183L26.799 8.49451C26.8731 8.4204 26.8206 8.29368 26.7158 8.29368L21.8235 8.29368C21.7585 8.29368 21.7058 8.24101 21.7058 8.17604L21.7058 3.28418C21.7058 3.17937 21.5791 3.12688 21.505 3.20099L14.6817 10.0243C14.6596 10.0464 14.6472 10.0763 14.6472 10.1075L14.6472 15.3527ZM14.6472 15.3527L7.58862 22.4113" stroke="black" stroke-width="2.505" stroke-linecap="round"/>
</svg>
