<svg width="30" height="30" viewBox="0 0 30 30" fill="none" xmlns="http://www.w3.org/2000/svg">
<path d="M0 15C0 6.71573 6.71573 0 15 0V0C23.2843 0 30 6.71573 30 15V15C30 23.2843 23.2843 30 15 30V30C6.71573 30 0 23.2843 0 15V15Z" fill="#E4E6EB"/>
<path fill-rule="evenodd" clip-rule="evenodd" d="M11 9C11 7.89543 11.8954 7 13 7H21C22.1046 7 23 7.89543 23 9V19L20 17L13 17C11.8954 17 11 16.1046 11 15V9Z" fill="#40444D"/>
<path fill-rule="evenodd" clip-rule="evenodd" d="M9.99991 9C8.89538 9.00005 8 9.89546 8 11V22L10.9999 20L17.9999 20C19.1045 20 19.9999 19.1046 19.9999 18H11.9999C10.8953 18 9.99991 17.1046 9.99991 16V9Z" fill="#40444D"/>
</svg>
