<svg width="40" height="40" viewBox="0 0 40 40" fill="none" xmlns="http://www.w3.org/2000/svg">
<circle cx="20" cy="20" r="20" fill="#4267B2"/>
<path fill-rule="evenodd" clip-rule="evenodd" d="M20.6826 30H11.1038C10.494 30 10 29.5057 10 28.8961V11.1038C10 10.4941 10.4941 10 11.1038 10H28.8962C29.5058 10 30 10.4941 30 11.1038V28.8961C30 29.5057 29.5057 30 28.8962 30H23.7997V22.2549H26.3994L26.7886 19.2365H23.7997V17.3094C23.7997 16.4355 24.0424 15.84 25.2955 15.84L26.8939 15.8393V13.1396C26.6175 13.1028 25.6687 13.0207 24.5648 13.0207C22.2603 13.0207 20.6826 14.4273 20.6826 17.0105V19.2365H18.0763V22.2549H20.6826V30Z" fill="white"/>
</svg>
