<svg width="40" height="40" viewBox="0 0 40 40" fill="none" xmlns="http://www.w3.org/2000/svg">
<circle cx="20" cy="20" r="20" fill="#0E76A8"/>
<path fill-rule="evenodd" clip-rule="evenodd" d="M28.5203 10H11.4756C10.6615 10 10 10.6459 10 11.4423V28.5577C10 29.354 10.6615 30.0007 11.4756 30.0007H28.5203C29.3363 30.0007 30 29.354 30 28.5577V11.4423C30 10.6459 29.3363 10 28.5203 10Z" fill="white"/>
<path fill-rule="evenodd" clip-rule="evenodd" d="M14.7665 12.7033C15.6978 12.7033 16.4545 13.46 16.4545 14.3928C16.4545 15.3244 15.6978 16.0811 14.7665 16.0811C13.8334 16.0811 13.0789 15.3244 13.0789 14.3928C13.0789 13.46 13.8334 12.7033 14.7665 12.7033ZM13.3109 26.7324H16.224V17.3615H13.3109V26.7324Z" fill="#0E76A8"/>
<path fill-rule="evenodd" clip-rule="evenodd" d="M18.05 17.3615H20.8435V18.6429H20.8835C21.2722 17.9058 22.2224 17.1291 23.6391 17.1291C26.5882 17.1291 27.1326 19.0695 27.1326 21.5927V26.7324H24.2213V22.1749C24.2213 21.088 24.2028 19.6902 22.7079 19.6902C21.1922 19.6902 20.9613 20.8749 20.9613 22.0971V26.7324H18.05V17.3615Z" fill="#0E76A8"/>
</svg>
