<svg width="40" height="40" viewBox="0 0 40 40" fill="none" xmlns="http://www.w3.org/2000/svg">
<circle cx="20" cy="20" r="20" fill="#1DA1F2"/>
<path d="M10 26.1576C11.7734 27.3212 13.9409 28 16.3054 28C23.8916 28 28.2266 21.697 27.9311 15.9757C28.7192 15.3939 29.4089 14.7151 30 13.8424C29.3103 14.1333 28.5222 14.4242 27.6355 14.5212C28.5222 14.0364 29.1133 13.2606 29.4089 12.2909C28.6207 12.7758 27.734 13.0667 26.8473 13.2606C26.0591 12.4849 25.0739 12 23.8916 12C21.2315 12 19.2611 14.4242 19.8522 16.9454C16.4039 16.7515 13.4483 15.2 11.3793 12.7758C10.2956 14.6182 10.7882 16.9454 12.6601 18.2061C11.9705 18.2061 11.3793 18.0121 10.7882 17.7212C10.7882 19.5636 12.069 21.3091 14.0394 21.697C13.4483 21.8909 12.8572 21.8909 12.1675 21.7939C12.6601 23.4424 14.2365 24.6061 16.0099 24.6061C14.335 25.8667 12.1675 26.4485 10 26.1576Z" fill="white"/>
</svg>
