<svg width="40" height="40" viewBox="0 0 40 40" fill="none" xmlns="http://www.w3.org/2000/svg">
<circle cx="20" cy="20" r="20" fill="#4FCE5D"/>
<path fill-rule="evenodd" clip-rule="evenodd" d="M10 19.9999C10 14.4855 14.4843 10 19.9971 10V10.0002H20.0029C25.5157 10.0002 30 14.4857 30 20.0001C30 25.5143 25.5157 30 20.0029 30C17.9693 30 16.0828 29.3946 14.5019 28.3481L10.6582 29.5766L11.9042 25.8612C10.7053 24.215 10 22.1869 10 19.9999ZM16.571 14.5855C16.8648 14.5975 17.0117 14.6151 17.2056 15.0795C17.2683 15.2307 17.3543 15.4395 17.4486 15.6683C17.7172 16.32 18.0526 17.134 18.1048 17.2428C18.1753 17.3899 18.246 17.5898 18.1459 17.7837C18.0584 17.9697 17.9812 18.0591 17.8525 18.2078C17.8428 18.219 17.8329 18.2304 17.8227 18.2423C17.7598 18.3153 17.698 18.3807 17.6363 18.446C17.5539 18.5332 17.4718 18.6202 17.3878 18.7245C17.3854 18.7272 17.383 18.73 17.3807 18.7328C17.2475 18.8891 17.1028 19.0589 17.2703 19.3477C17.4407 19.6357 18.0283 20.5939 18.8924 21.3639C19.9178 22.2761 20.7646 22.6186 21.1466 22.7731C21.1806 22.7868 21.211 22.7991 21.2374 22.8102C21.4783 22.9102 21.7664 22.8866 21.9427 22.6985C22.1338 22.4924 22.3635 22.17 22.6025 21.8346C22.643 21.7779 22.6836 21.7208 22.7244 21.6638C22.9241 21.3816 23.1768 21.3463 23.4413 21.4462C23.7117 21.5402 25.14 22.2457 25.4337 22.3927C25.4937 22.4228 25.5496 22.4496 25.601 22.4744C25.8016 22.5708 25.9359 22.6354 25.992 22.7337C26.0627 22.8571 26.0627 23.4391 25.8217 24.1212C25.5807 24.803 24.6226 25.3676 23.8586 25.5322C23.3357 25.6438 22.6538 25.7321 20.3558 24.7797C17.634 23.6524 15.8096 21.007 15.4385 20.4689C15.4089 20.4261 15.3886 20.3966 15.3778 20.3823C15.3736 20.3766 15.3687 20.3699 15.3631 20.3622C15.1764 20.1068 14.1906 18.7588 14.1906 17.3663C14.1906 15.972 14.8791 15.2721 15.1875 14.9586C15.1964 14.9496 15.205 14.9409 15.2132 14.9325C15.4542 14.6856 15.8538 14.5739 16.236 14.5739C16.3595 14.5739 16.471 14.5797 16.571 14.5855Z" fill="white"/>
</svg>
