<svg width="30" height="30" viewBox="0 0 30 30" fill="none" xmlns="http://www.w3.org/2000/svg">
<path d="M0 15C0 6.71573 6.71573 0 15 0V0C23.2843 0 30 6.71573 30 15V15C30 23.2843 23.2843 30 15 30V30C6.71573 30 0 23.2843 0 15V15Z" fill="#E4E6EB"/>
<path d="M9.45913 13.4906C8.73143 10.7748 10.3431 7.98326 13.0589 7.25556V7.25556C15.7748 6.52785 18.5663 8.13955 19.294 10.8554L19.5151 11.6805C19.8959 13.1016 20.845 14.3032 22.1393 15.0027L22.5706 15.2358C22.953 15.4425 22.8864 16.0103 22.4664 16.1229L9.34547 19.6386C8.92555 19.7511 8.58389 19.2927 8.81176 18.9225L9.06868 18.505C9.83982 17.252 10.061 15.7368 9.68021 14.3157L9.45913 13.4906Z" fill="#40444D"/>
<path d="M18.7629 20.3467C19.1608 19.6576 19.2686 18.8387 19.0626 18.0702L13.2671 19.6231C13.473 20.3916 13.9758 21.0469 14.6649 21.4447C15.3539 21.8426 16.1728 21.9504 16.9413 21.7444C17.7099 21.5385 18.3651 21.0357 18.7629 20.3467Z" fill="#40444D"/>
</svg>
